<?xml version="1.0" encoding="utf-8"?><svg viewBox="0 0 47 40" xmlns="http://www.w3.org/2000/svg" xmlns:xlink="http://www.w3.org/1999/xlink"><style>:root>svg{display:none}:root>svg:target{display:block}</style><svg fill="none" viewBox="0 0 40 40" id="Group" xmlns="http://www.w3.org/2000/svg"><path d="M37.857 14.174c-.527-1.634-.303-4.088-1.674-5.982-1.383-1.91-3.788-2.452-5.146-3.445-1.343-.983-2.593-3.12-4.853-3.858-2.197-.717-4.443.255-6.184.255-1.741 0-3.987-.972-6.184-.256-2.26.738-3.51 2.877-4.853 3.859-1.357.992-3.763 1.536-5.145 3.445-1.371 1.893-1.148 4.352-1.675 5.982C1.64 15.726 0 17.588 0 20c0 2.413 1.64 4.269 2.143 5.826.527 1.634.302 4.088 1.674 5.982 1.383 1.91 3.788 2.452 5.146 3.445 1.343.983 2.593 3.121 4.853 3.859 2.195.716 4.445-.256 6.184-.256 1.737 0 3.992.97 6.184.256 2.26-.738 3.51-2.876 4.853-3.859 1.357-.992 3.763-1.536 5.145-3.445 1.371-1.892 1.148-4.351 1.675-5.982C38.36 24.274 40 22.412 40 20c0-2.413-1.639-4.268-2.143-5.826Zm-2.973 10.691c-.615 1.905-.454 4.036-1.232 5.11-.789 1.09-2.86 1.586-4.46 2.756-1.58 1.156-2.689 2.99-3.978 3.41-1.22.398-3.206-.41-5.214-.41-2.022 0-3.989.81-5.214.41-1.289-.42-2.396-2.253-3.979-3.41-1.589-1.163-3.672-1.67-4.459-2.756-.775-1.07-.62-3.217-1.232-5.11-.6-1.854-1.991-3.46-1.991-4.865 0-1.406 1.39-3.006 1.991-4.865.615-1.904.454-4.036 1.232-5.11.788-1.088 2.862-1.587 4.46-2.756 1.586-1.16 2.687-2.988 3.978-3.41 1.218-.397 3.212.41 5.214.41 2.026 0 3.988-.81 5.214-.41 1.289.421 2.396 2.253 3.979 3.41 1.589 1.163 3.672 1.67 4.459 2.756.775 1.071.62 3.215 1.232 5.11.599 1.854 1.991 3.46 1.991 4.865 0 1.406-1.39 3.007-1.991 4.865Zm-7.685-9.88c.61.61.61 1.6 0 2.21l-7.821 7.82c-.61.61-1.6.61-2.21 0l-4.367-4.366a1.562 1.562 0 1 1 2.21-2.21l3.262 3.262 6.716-6.716c.61-.61 1.6-.61 2.21 0Z" fill="#3A3A3A"/></svg><svg fill="none" viewBox="0 0 40 38" id="Vector" xmlns="http://www.w3.org/2000/svg"><path d="M36.899 19.735V1.52c0-.65-.527-1.177-1.177-1.177H4.197C3.547.343 3.02.87 3.02 1.52v19.667a3.562 3.562 0 0 0-1.613.667c-1.548 1.098-1.914 3.553-.618 5.068l5.3 6.425c3.281 3.84 6.766 4.31 11.947 4.31 4.446 0 6.434.02 10.308-.863l3.773-.903c.612.855 1.583 1.408 2.675 1.408h1.859c1.846 0 3.349-1.583 3.349-3.528V23.252c0-1.857-1.37-3.383-3.101-3.517Zm-5.29 2.42-1.567-.796a9.322 9.322 0 0 0-8.177-.132c-.714.28-2.272 1.224-3.08 1.192h-5.44a3.276 3.276 0 0 0-3.273 3.273v.858l-.03-.032-3.886-4.217a3.585 3.585 0 0 0-.783-.64V9.987h9.63v4.314c0 .65.527 1.176 1.176 1.176h7.425c.65 0 1.177-.527 1.177-1.176V9.987h9.764v9.748c-1.374.106-2.52 1.09-2.935 2.42ZM17.357 9.987h5.071v3.137h-5.071V9.987Zm17.19-2.353H24.78V2.696h9.764v4.938ZM22.426 2.696v4.938h-5.071V2.696h5.071Zm-7.424 0v4.938h-9.63V2.696h9.63Zm12.795 31.809c-3.58.82-5.735.786-9.72.786-4.863 0-7.213-.078-10.173-3.442l-5.3-6.425c-.922-1.2.748-2.617 1.82-1.528l3.885 4.217c1.027 1.083 2.32 1.68 3.912 1.714h10.77a1.177 1.177 0 1 0 0-2.353H12.426v-1.782a.92.92 0 0 1 .92-.92h5.44c1.225.088 2.994-.935 4.073-1.411a6.98 6.98 0 0 1 6.12.097l2.465 1.252v8.923l-3.645.872Zm9.849-.734c0 .648-.447 1.175-.996 1.175h-1.859c-.549 0-.995-.527-.995-1.175V23.252c0-.648.446-1.175.995-1.175h1.859c.549 0 .996.527.996 1.175v10.519Z" fill="#3A3A3A"/></svg><svg fill="none" viewBox="0 0 36 40" id="Vector-1" xmlns="http://www.w3.org/2000/svg"><path d="M34.462 15.975C34.2 7.122 26.916 0 18 0S1.8 7.122 1.537 15.975L.353 17.16v8.033l1.176 1.177v5.473a5.81 5.81 0 0 0 5.804 5.804h1.458A3.535 3.535 0 0 0 12.118 40h2.353a3.535 3.535 0 0 0 3.328-2.356l.201.003c5.681 0 10.435-4.048 11.528-9.412h3.077l3.042-3.042V17.16l-1.185-1.185ZM18 2.353c6.983 0 12.797 5.096 13.92 11.765h-2.392C28.435 8.754 23.681 4.706 18 4.706S7.565 8.754 6.472 14.118H4.079C5.203 7.449 11.017 2.353 18 2.353Zm9.114 11.765c-3.803-.012-6.49.22-8.704-3.018l-1.076-1.572-.924 1.666c-1.347 2.426-3.16 2.924-5.469 2.924H8.886c1.047-4.055 4.737-7.06 9.114-7.06 4.378 0 8.067 3.005 9.114 7.06ZM6.235 25.882H4.37L2.706 24.22v-6.085l1.664-1.663h1.865v9.411Zm-2.353 5.961v-3.608H6.47a11.661 11.661 0 0 0 3.072 5.826c-.33.352-.587.77-.751 1.233H7.333a3.455 3.455 0 0 1-3.45-3.45Zm10.589 5.804h-2.353a1.178 1.178 0 0 1 0-2.353h2.353a1.178 1.178 0 0 1 0 2.353Zm12.94-11.765c0 5.19-4.221 9.412-9.411 9.412-.067 0-.136-.001-.203-.003a3.535 3.535 0 0 0-3.326-2.35c-2.416.005-2.378-.012-2.679.016a9.357 9.357 0 0 1-3.204-7.075v-9.411h2.353c2.082 0 4.618-.344 6.58-2.733 2.59 2.714 5.755 2.733 8.596 2.733h1.295v9.411Zm5.883-1.663-1.664 1.663h-1.865v-9.411h1.865l1.664 1.663v6.085Z" fill="#3A3A3A"/></svg><svg fill="none" viewBox="0 0 11 20" id="facebook" xmlns="http://www.w3.org/2000/svg"><path d="M9.12 3.32H11V.14A26.111 26.111 0 0 0 8.26 0C5.54 0 3.68 1.66 3.68 4.7v2.62H.61v3.56h3.07V20h3.68v-9.12h3.06l.46-3.56H7.36V5.05c0-1.05.28-1.73 1.76-1.73Z" fill="#F5EFDB"/></svg><svg fill="none" viewBox="0 0 20 20" id="instagram" xmlns="http://www.w3.org/2000/svg"><path d="M15.34 3.46a1.2 1.2 0 1 0 0 2.4 1.2 1.2 0 0 0 0-2.4Zm4.6 2.42a7.588 7.588 0 0 0-.46-2.43 4.94 4.94 0 0 0-1.16-1.77A4.7 4.7 0 0 0 16.55.53a7.3 7.3 0 0 0-2.43-.47C13.06 0 12.72 0 10 0S6.94 0 5.88.06a7.3 7.3 0 0 0-2.43.47 4.78 4.78 0 0 0-1.77 1.15A4.7 4.7 0 0 0 .53 3.45a7.3 7.3 0 0 0-.47 2.43C0 6.94 0 7.28 0 10s0 3.06.06 4.12a7.3 7.3 0 0 0 .47 2.43 4.7 4.7 0 0 0 1.15 1.77 4.78 4.78 0 0 0 1.77 1.15 7.3 7.3 0 0 0 2.43.47C6.94 20 7.28 20 10 20s3.06 0 4.12-.06a7.3 7.3 0 0 0 2.43-.47 4.7 4.7 0 0 0 1.77-1.15 4.85 4.85 0 0 0 1.16-1.77c.285-.78.44-1.6.46-2.43 0-1.06.06-1.4.06-4.12s0-3.06-.06-4.12ZM18.14 14a5.61 5.61 0 0 1-.34 1.86 3.06 3.06 0 0 1-.75 1.15c-.324.33-.717.586-1.15.75a5.61 5.61 0 0 1-1.86.34c-1 .05-1.37.06-4 .06s-3 0-4-.06a5.73 5.73 0 0 1-1.94-.3 3.27 3.27 0 0 1-1.1-.75 3 3 0 0 1-.74-1.15 5.54 5.54 0 0 1-.4-1.9c0-1-.06-1.37-.06-4s0-3 .06-4a5.54 5.54 0 0 1 .35-1.9A3 3 0 0 1 3 3a3.14 3.14 0 0 1 1.1-.8A5.73 5.73 0 0 1 6 1.86c1 0 1.37-.06 4-.06s3 0 4 .06a5.61 5.61 0 0 1 1.86.34 3.06 3.06 0 0 1 1.19.8c.328.307.584.683.75 1.1.222.609.337 1.252.34 1.9.05 1 .06 1.37.06 4s-.01 3-.06 4ZM10 4.87A5.13 5.13 0 1 0 15.14 10 5.12 5.12 0 0 0 10 4.87Zm0 8.46a3.33 3.33 0 1 1 0-6.66 3.33 3.33 0 0 1 0 6.66Z" fill="#F5EFDB"/></svg><svg fill="none" viewBox="0 0 47 40" id="quote" xmlns="http://www.w3.org/2000/svg"><path d="M12.914 22.857c2.402 0 4.304.802 5.706 2.406 1.501 1.504 2.252 3.509 2.252 6.015 0 2.707-.9 4.862-2.703 6.466C16.468 39.248 14.115 40 11.112 40c-3.504 0-6.257-1.353-8.259-4.06C.951 33.233 0 29.373 0 24.36c0-4.51 1.001-8.67 3.003-12.48C5.005 7.97 8.01 4.06 12.013.15c.1-.1.25-.15.45-.15.3 0 .55.15.751.451.2.3.2.551 0 .752C8.31 6.216 5.856 12.13 5.856 18.947c0 2.807.5 4.863 1.502 6.166.9-1.504 2.753-2.256 5.556-2.256Zm26.128 0c2.402 0 4.304.802 5.706 2.406C46.249 26.767 47 28.772 47 31.278c0 2.707-.901 4.862-2.703 6.466C42.595 39.248 40.243 40 37.24 40c-3.504 0-6.257-1.353-8.26-4.06-1.901-2.707-2.852-6.567-2.852-11.58 0-4.51 1-8.67 3.003-12.48 2.002-3.91 5.005-7.82 9.01-11.73.1-.1.25-.15.45-.15.3 0 .55.15.75.451.201.3.201.551 0 .752-4.904 5.013-7.357 10.927-7.357 17.744 0 2.807.5 4.863 1.502 6.166.9-1.504 2.753-2.256 5.556-2.256Z" fill="#fff"/></svg><svg fill="none" viewBox="0 0 14 9" id="select-arrow" xmlns="http://www.w3.org/2000/svg"><path d="m7.576 8.488 5.433-5.922a1.054 1.054 0 0 0 0-1.455c-.388-.415-.97-.415-1.358 0L6.8 6.202l-4.85-5.09C1.56.695.98.695.59 1.111a.976.976 0 0 0-.291.727c0 .311.097.52.291.727l5.433 5.922c.485.416 1.067.416 1.552 0-.097 0-.097 0 0 0Z" fill="#AAA"/></svg><svg fill="none" viewBox="0 0 40 40" id="trophy_1" xmlns="http://www.w3.org/2000/svg"><path d="M32.903 2.344c-.853 0-1.654.23-2.344.63V1.172C30.56.525 30.035 0 29.387 0h-18.75C9.99 0 9.465.525 9.465 1.172v1.817a4.657 4.657 0 0 0-2.368-.645A4.693 4.693 0 0 0 2.409 7.03a9.79 9.79 0 0 0 1.69 5.51c1.881 2.778 4.202 3.5 6.122 4.267a10.603 10.603 0 0 0 6.138 5.977l-.864 5.496h-.17a3.52 3.52 0 0 0-3.516 3.516v5.86h-1.172a1.172 1.172 0 0 0 0 2.343h18.75a1.172 1.172 0 0 0 0-2.344h-1.172v-5.86a3.52 3.52 0 0 0-3.515-3.515h-.17l-.864-5.496a10.604 10.604 0 0 0 6.143-5.988c1.814-.726 4.191-1.45 6.092-4.257a9.79 9.79 0 0 0 1.69-5.509 4.693 4.693 0 0 0-4.688-4.687ZM9.457 13.979A7.447 7.447 0 0 1 4.753 7.03a2.346 2.346 0 0 1 2.344-2.343A2.346 2.346 0 0 1 9.44 7.03c0 .083.008.163.025.24v5.62c0 .376.02.748.059 1.115l-.068-.027Zm16.415 23.677H14.153v-2.343h11.719v2.343ZM24.7 30.625c.646 0 1.172.526 1.172 1.172v1.172H14.153v-1.172c0-.646.526-1.172 1.172-1.172H24.7Zm-6.833-2.344.776-4.932a10.603 10.603 0 0 0 2.74 0l.775 4.932h-4.29Zm10.348-15.39c0 4.523-3.68 8.203-8.203 8.203s-8.203-3.68-8.203-8.203V7.03h16.407v5.86Zm0-8.204H11.81V2.345h16.407v2.344Zm2.328 9.292-.041.016c.038-.363.057-.731.057-1.104V7.03a2.347 2.347 0 0 1 2.344-2.343 2.346 2.346 0 0 1 2.344 2.343 7.447 7.447 0 0 1-4.704 6.948Z" fill="#3A3A3A"/></svg><svg fill="none" viewBox="0 0 23 20" id="twitter" xmlns="http://www.w3.org/2000/svg"><path d="M22.991 1.95a1 1 0 0 0-1.51-.86 7.48 7.48 0 0 1-1.873.794A5.152 5.152 0 0 0 16.233.642a5.233 5.233 0 0 0-5.223 5.063 11.032 11.032 0 0 1-6.814-3.924 1.011 1.011 0 0 0-.857-.365.998.998 0 0 0-.785.5 5.275 5.275 0 0 0-.242 4.769l-.002.002a1.041 1.041 0 0 0-.496.888c-.001.147.007.294.027.44a5.185 5.185 0 0 0 1.568 3.312.999.999 0 0 0-.066.77 5.204 5.204 0 0 0 2.362 2.921 7.465 7.465 0 0 1-3.59.449A1 1 0 0 0 1.45 17.3a12.942 12.942 0 0 0 7.01 2.061 12.788 12.788 0 0 0 12.465-9.363c.353-1.183.533-2.412.535-3.646l-.001-.2a5.77 5.77 0 0 0 1.532-4.202Zm-3.306 3.212a.995.995 0 0 0-.234.702c.01.165.009.331.009.488a10.826 10.826 0 0 1-.454 3.08 10.685 10.685 0 0 1-10.546 7.93c-.86 0-1.715-.101-2.55-.301a9.48 9.48 0 0 0 2.942-1.564 1.001 1.001 0 0 0-.602-1.786 3.208 3.208 0 0 1-2.214-.935c.15-.028.298-.063.445-.105a1 1 0 0 0-.08-1.944 3.197 3.197 0 0 1-2.25-1.725c.181.025.363.04.545.046a1.021 1.021 0 0 0 .984-.696 1 1 0 0 0-.4-1.137A3.196 3.196 0 0 1 3.86 4.344a13.014 13.014 0 0 0 8.21 3.48 1.02 1.02 0 0 0 .817-.36 1 1 0 0 0 .206-.867 3.164 3.164 0 0 1-.087-.729 3.23 3.23 0 0 1 4.506-2.962c.403.176.766.433 1.065.756a.993.993 0 0 0 .921.298 9.27 9.27 0 0 0 1.212-.322 6.679 6.679 0 0 1-1.026 1.524Z" fill="#F5EFDB"/></svg></svg>